PathFileType	4	(X/Y/Z)	Patient4_TMGait_0pt5_02_right_13.trc.trc
DataRate	CameraRate	NumFrames	NumMarkers	Units	OrigDataRate	OrigDataStartFrame	OrigNumFrames
76.086956521739	76.086956521739	6	33	mm	76.086956521739	71	       141
Frame#	Time	Sacral			L.Shoulder			Chest			R.Shoulder			Neck			R.ASIS			L.ASIS			R.Thigh.Superior			R.Thigh.Lateral			R.Thigh.Inferior			R.Patella			L.Thigh.Superior			L.Thigh.Lateral			L.Thigh.Inferior			L.Patella			L.Shank.Superior			L.Shank.Lateral			L.Shank.Inferior			R.Shank.Superior			R.Shank.Lateral			R.Shank.Inferior			R.Heel			R.Midfoot.Superior			R.Midfoot.Lateral			R.Toe			L.Heel			L.Midfoot.Lateral			L.Midfoot.Superior			L.Toe			L.Elbow			L.Wrist			R.Elbow			R.Wrist			
		X1	Y1	Z1	X2	Y2	Z2	X3	Y3	Z3	X4	Y4	Z4	X5	Y5	Z5	X6	Y6	Z6	X7	Y7	Z7	X8	Y8	Z8	X9	Y9	Z9	X10	Y10	Z10	X11	Y11	Z11	X12	Y12	Z12	X13	Y13	Z13	X14	Y14	Z14	X15	Y15	Z15	X16	Y16	Z16	X17	Y17	Z17	X18	Y18	Z18	X19	Y19	Z19	X20	Y20	Z20	X21	Y21	Z21	X22	Y22	Z22	X23	Y23	Z23	X24	Y24	Z24	X25	Y25	Z25	X26	Y26	Z26	X27	Y27	Z27	X28	Y28	Z28	X29	Y29	Z29	X30	Y30	Z30	X31	Y31	Z31	X32	Y32	Z32	X33	Y33	Z33	

71	17.930000000000	606.608514197268	1009.426597052959	534.224269332484	773.915097407126	1431.786677824007	344.023697767766	891.903863293978	1355.257067445862	491.063994677582	831.660945609833	1428.502289882912	674.883035038125	791.034598691040	1490.162779344296	494.685273147699	837.489204595420	934.755686113847	633.465892340385	805.741986092944	950.928645823006	360.178057634158	831.922505865048	722.257687997244	605.482625840231	727.100082746492	630.343039530064	667.131692188564	784.276659168131	564.068025227317	585.326700396209	765.403990117394	479.611377363004	587.632392451568	876.856587372578	765.259955900851	393.663964775744	820.958390389983	637.632007071151	320.950955095863	921.501985116767	577.166009173023	384.325058935519	944.887328530001	510.629427029726	383.883106361393	927.631132391719	438.585457080196	373.230079635696	859.515457595181	310.005486877707	322.684891937190	942.795915790750	209.892473652931	381.125474466028	726.890565810322	397.375695463039	592.612525033627	645.294838461400	301.305440480552	652.685566654728	673.601211420001	204.031769767372	586.004733906213	522.560567047197	46.660636025046	552.641167553212	695.406004970664	96.583432077803	588.299312584933	605.974742035897	36.981049290591	626.419013129953	814.306085185985	39.337831377726	615.562037191732	850.785744378801	37.368662060470	417.845791980822	926.602575225208	39.294639926020	339.331505705128	1001.414727331003	110.532054630502	363.474034977088	1133.521298274966	73.372787079301	339.892371544219	640.475670592488	1100.133355228387	247.519748477063	633.771569298228	839.056615096555	258.062405406452	966.842231163995	1114.965357772720	778.770073694414	1205.364221476764	1163.595033126461	713.097009584092	
72	17.943142857143	607.627916559019	1008.054836682155	532.096110245948	773.921956528192	1430.531053196977	341.706005799232	891.705027578266	1354.716167354497	489.315084698344	830.395354125347	1427.777950561997	672.943403979914	790.397325885974	1489.277781322722	492.375263133498	838.382115294025	934.059479315005	632.366811177919	807.341511501216	949.522254333486	359.007635595744	832.487815135459	721.306048531128	604.942749309936	726.697769274570	629.803441390001	666.158842812014	783.824527302649	563.089571170435	584.707974615232	764.046762119559	478.336388919852	586.891963346176	877.886676530035	762.868036402031	392.330035145069	820.288653603045	635.574546902034	320.563109692009	921.126386472830	575.146666051162	383.638039527776	943.428512897584	508.047863697772	383.724541127795	925.953769181301	435.848699845559	373.135076833129	856.612864176846	307.780755521613	323.012100110835	938.758748220374	207.036462512416	381.778660426850	724.589816702099	396.441815298997	592.029047259514	641.659869141642	301.545728101743	652.319238714868	668.735506020289	203.782270295114	585.883535080323	516.077280404317	47.484893836712	552.878629774631	689.119892557562	96.713052310976	588.527756819104	599.482424486978	37.303159535641	626.597349663627	807.775345661583	39.095232636227	615.664709036781	843.948661141288	36.850189548998	418.349032281999	919.894268591932	37.641745087956	339.874061326859	996.384968077923	106.726987265956	364.800598920427	1127.825915771991	66.462858328068	341.168521869554	641.843038537235	1098.102598737183	245.903385401883	635.487214771890	837.013968638336	256.625270731875	963.706176797449	1112.760366864080	777.188774056052	1203.588855159029	1157.913849444509	713.131906744662	
73	17.956285714286	608.560762580027	1006.879690025595	529.902660902080	774.134446833542	1429.383065442217	339.293718828874	891.638658821786	1354.246726927919	487.513668874745	829.287580109836	1427.212315265712	670.916895110817	789.975553961384	1488.531481474206	489.941709212283	839.179579572922	933.394260344929	631.112237831373	808.816899344955	948.430010927377	357.699070973957	833.240324433311	720.466349023833	604.118326025755	726.729476916651	629.249450803245	664.952061993564	783.907786194105	562.162369141683	583.829305581909	763.268631334163	477.007642796299	585.917682513826	878.981646788794	761.008570073614	391.014261704147	820.139684975181	634.113525844623	320.006929414631	921.123035123642	573.703537716065	383.008390553707	942.320908518527	505.958296895678	383.564562175317	924.637832545010	433.591593565186	372.977665101329	854.151633644527	306.117953887834	323.000092756009	934.860814582404	204.667361200224	382.272654180427	722.782469799565	395.462810405625	591.281924111506	638.418800349441	301.887756004857	651.829102336387	664.102563671808	203.598887781520	585.701945279613	509.658775999019	48.603554752654	553.144261083076	682.931144786400	96.906369222687	588.757540239818	593.039861087284	37.781711956757	626.801116942593	801.271600866552	38.826553387296	615.767909971369	837.204775942257	36.608449161229	418.643001482796	913.275573481507	36.437627107172	340.212825880318	991.256818175862	103.554003984417	365.919171456939	1122.077492734705	60.534537997136	342.254088472345	644.007108784628	1095.907157598159	244.073405508063	638.068926348676	834.813793451065	254.823918791560	959.821731721502	1110.299616914762	775.620180735336	1201.337982346247	1150.769993049226	713.505569925941	
74	17.969428571429	609.391754225925	1005.958865054454	527.649204839295	774.521159779984	1428.412909128465	336.832957586934	891.702721553940	1353.885907052435	485.665751036829	828.400663467526	1426.847478237933	668.822636917436	789.774108468430	1487.970324977658	487.432144701516	839.864076418567	932.812327983430	629.674043173297	810.140002730831	947.714824342518	356.215478071572	834.090170099265	719.787891971183	602.977251200398	727.130992738506	628.733889006967	663.525757080970	784.458985404966	561.330437000292	582.713282536798	763.040343232401	475.658447179418	584.780171924851	880.178872406496	759.821816411220	389.748020609329	820.618004262596	633.308092605575	319.288069186276	921.550144970253	572.873480483926	382.435249290685	941.636901911075	504.396298385551	383.404974822487	923.717939289449	431.842907569080	372.789323320649	852.156142614304	305.062166659933	322.652357456855	931.084249487373	202.819461908378	382.622465333577	721.415904740933	394.488106515888	590.415779556431	635.527034514951	302.375458967527	651.237269741406	659.694038864101	203.531569367672	585.490196683746	503.318684148386	50.066134620386	553.436561806898	676.858539456355	97.170382311221	588.988858879655	586.655088268483	38.440260741869	627.026244242272	794.796822132037	38.537077073708	615.866419042458	830.595509575684	36.596809483779	418.764707552766	906.773041139044	35.661306176744	340.374242235505	985.998201527925	101.087973878014	366.796000534965	1116.273700278881	55.777210933087	343.093573121386	646.931393711627	1093.646829539568	242.037559985125	641.553103947760	832.552089596523	252.638413680646	955.221205734078	1107.660834933080	774.040789975910	1198.570877483419	1142.165200098845	714.218134090094	
75	17.982571428571	610.124791701783	1005.323425891402	525.324199251948	775.040931462689	1427.676326165376	334.365266365981	891.885447022924	1353.663753112170	483.776710236623	827.769666858983	1426.706527989377	666.680527109193	789.777263731371	1487.624646501484	484.895819187547	840.433353415613	932.361400400708	628.032150646703	811.316171804954	947.404129064398	354.524428540659	834.959426158718	719.309457352906	601.521869285299	727.822636798430	628.308121243381	661.908808675161	785.400799306660	560.632280824798	581.407663101168	763.319382586819	474.319871085026	583.573974680818	881.506806563111	759.366278918725	388.552485617102	821.750151184482	633.136699803603	318.424262626881	922.400101285196	572.603781876287	381.909075987551	941.382067467687	503.322327697477	383.256120862800	923.163101653343	430.566090665896	372.610978836837	850.578272212426	304.583960310018	322.017440223265	927.372861058576	201.463642984137	382.864776617463	720.422955372979	393.565696978996	589.488157379638	632.925215855878	303.048851776097	650.572928377137	655.496568144132	203.624650927570	585.284185743925	497.068735293427	51.906169586333	553.751763453675	670.916688861804	97.504130519407	589.219041472038	580.333950652036	39.292725190149	627.265873283347	788.350665334323	38.236277871733	615.954280975263	824.111509629983	36.751764288897	418.754951391213	900.370424685956	35.253510610838	340.395988893459	980.568938194848	99.320528340218	367.433033997868	1110.393900462233	52.223663707113	343.673485790423	650.547061790616	1091.419762525087	239.804760489092	645.973487449882	830.323818501675	250.059014372060	949.952189403061	1104.925715365004	772.430724928865	1195.230112816904	1132.108969765610	715.260046959477	
76	17.995714285714	610.782452130649	1004.974959542292	522.901427075835	775.648255341852	1427.209320476387	331.921938444245	892.166529567417	1353.602079906049	481.850521085721	827.393976270512	1426.791221602607	664.508536595394	789.950163061145	1487.506339164931	482.376521001430	840.902012866097	932.077913371905	626.178174676406	812.384142190857	947.487187664024	352.606211402625	835.792645760275	719.052799767044	599.790142616930	728.718104854264	628.014794840828	660.141383499571	786.654109349664	560.094706542799	579.980510306781	764.053360006914	473.017164652967	582.405532814864	882.975119703639	759.601361555098	387.429374162774	823.458217377914	633.495574007390	317.441445725913	923.592382656052	572.763515091635	381.410673762413	941.493359706217	502.638606022464	383.132604430963	922.884283635611	429.674072535323	372.479826946801	849.313089292260	304.588968276344	321.179682758385	923.658397228081	200.522066028106	383.046223317539	719.729901392876	392.736032188987	588.562231977662	630.546958381911	303.939380916237	649.868309198636	651.493701070936	203.911547196149	585.120799426750	490.917922259915	54.137533937031	554.084559406008	665.114621906822	97.897357564409	589.442784100793	574.079586159992	40.341962655562	627.511283975505	781.930278615971	37.937510358684	616.025457358184	817.718333419420	37.007456434218	418.655726604237	894.032773587355	35.132534659513	340.321470028498	974.944714645845	98.173885440669	367.861736782199	1104.420418549459	49.765713499141	344.016103576138	654.755729564781	1089.314844437087	237.382615191995	651.356962613379	828.217172044404	247.086532708979	944.079138587853	1102.175147415201	770.774675349981	1191.241180311242	1120.622506642970	716.611719614984	
